<?xml version="1.0" encoding="UTF-8"?>
<svg xmlns="http://www.w3.org/2000/svg" xmlns:xlink="http://www.w3.org/1999/xlink" width="375pt" height="374.999991pt" viewBox="0 0 375 374.999991" version="1.2">
<defs>
<clipPath id="clip1">
  <path d="M 136.898438 158.558594 L 236.648438 158.558594 L 236.648438 278 L 136.898438 278 Z M 136.898438 158.558594 "/>
</clipPath>
<clipPath id="clip2">
  <path d="M 165 286 L 194 286 L 194 315.308594 L 165 315.308594 Z M 165 286 "/>
</clipPath>
</defs>
<g id="surface1">
<g clip-path="url(#clip1)" clip-rule="nonzero">
<path style=" stroke:none;fill-rule:nonzero;fill:rgb(32.939148%,32.939148%,32.939148%);fill-opacity:1;" d="M 179.648438 277.300781 C 171.777344 277.300781 165.398438 270.921875 165.398438 263.050781 L 165.398438 244.054688 C 165.398438 236.1875 171.777344 229.808594 179.648438 229.808594 C 182.511719 229.78125 208.148438 225.058594 208.148438 206.0625 C 208.148438 196.566406 198.648438 187.066406 184.398438 187.066406 C 172.800781 187.066406 165.398438 196.566406 165.398438 201.3125 C 165.398438 209.183594 159.019531 215.5625 151.148438 215.5625 C 143.277344 215.5625 136.898438 209.183594 136.898438 201.3125 C 136.898438 178.148438 158.652344 158.570312 184.398438 158.570312 C 222.398438 158.570312 236.648438 186.980469 236.648438 210.8125 C 236.648438 230.496094 225.832031 245.542969 206.183594 253.175781 C 201.910156 254.839844 197.683594 255.960938 193.898438 256.722656 L 193.898438 263.050781 C 193.898438 270.921875 187.519531 277.300781 179.648438 277.300781 Z M 179.648438 277.300781 "/>
</g>
<g clip-path="url(#clip2)" clip-rule="nonzero">
<path style=" stroke:none;fill-rule:nonzero;fill:rgb(32.939148%,32.939148%,32.939148%);fill-opacity:1;" d="M 193.898438 301.042969 C 193.898438 301.980469 193.804688 302.90625 193.625 303.824219 C 193.441406 304.742188 193.171875 305.632812 192.8125 306.496094 C 192.453125 307.359375 192.015625 308.183594 191.496094 308.960938 C 190.976562 309.738281 190.382812 310.457031 189.722656 311.117188 C 189.0625 311.78125 188.339844 312.371094 187.5625 312.890625 C 186.785156 313.410156 185.964844 313.847656 185.101562 314.207031 C 184.234375 314.566406 183.34375 314.835938 182.425781 315.019531 C 181.507812 315.199219 180.582031 315.292969 179.648438 315.292969 C 178.710938 315.292969 177.785156 315.199219 176.867188 315.019531 C 175.949219 314.835938 175.058594 314.566406 174.195312 314.207031 C 173.328125 313.847656 172.507812 313.410156 171.730469 312.890625 C 170.953125 312.371094 170.230469 311.78125 169.570312 311.117188 C 168.910156 310.457031 168.316406 309.738281 167.796875 308.960938 C 167.277344 308.183594 166.839844 307.359375 166.480469 306.496094 C 166.125 305.632812 165.851562 304.742188 165.671875 303.824219 C 165.488281 302.90625 165.398438 301.980469 165.398438 301.042969 C 165.398438 300.109375 165.488281 299.183594 165.671875 298.265625 C 165.851562 297.347656 166.125 296.457031 166.480469 295.59375 C 166.839844 294.726562 167.277344 293.90625 167.796875 293.128906 C 168.316406 292.351562 168.910156 291.632812 169.570312 290.96875 C 170.230469 290.308594 170.953125 289.71875 171.730469 289.199219 C 172.507812 288.679688 173.328125 288.238281 174.195312 287.882812 C 175.058594 287.523438 175.949219 287.253906 176.867188 287.070312 C 177.785156 286.886719 178.710938 286.796875 179.648438 286.796875 C 180.582031 286.796875 181.507812 286.886719 182.425781 287.070312 C 183.34375 287.253906 184.234375 287.523438 185.101562 287.882812 C 185.964844 288.238281 186.785156 288.679688 187.5625 289.199219 C 188.339844 289.71875 189.0625 290.308594 189.722656 290.96875 C 190.382812 291.632812 190.976562 292.351562 191.496094 293.128906 C 192.015625 293.90625 192.453125 294.726562 192.8125 295.59375 C 193.171875 296.457031 193.441406 297.347656 193.625 298.265625 C 193.804688 299.183594 193.898438 300.109375 193.898438 301.042969 Z M 193.898438 301.042969 "/>
</g>
</g>
</svg>
