<?xml version="1.0" encoding="UTF-8"?>
<svg xmlns="http://www.w3.org/2000/svg" xmlns:xlink="http://www.w3.org/1999/xlink" width="375pt" height="374.999991pt" viewBox="0 0 375 374.999991" version="1.2">
<g id="surface1">
<path style=" stroke:none;fill-rule:nonzero;fill:rgb(100%,23.919678%,0%);fill-opacity:1;" d="M 187.5 187.5 C 186.457031 187.5 185.414062 187.527344 184.375 187.578125 C 183.332031 187.628906 182.292969 187.703125 181.253906 187.808594 C 180.214844 187.910156 179.183594 188.035156 178.152344 188.191406 C 177.117188 188.34375 176.09375 188.519531 175.070312 188.722656 C 174.046875 188.929688 173.03125 189.15625 172.019531 189.410156 C 171.007812 189.664062 170 189.941406 169.003906 190.242188 C 168.003906 190.546875 167.015625 190.875 166.035156 191.226562 C 165.050781 191.574219 164.078125 191.949219 163.117188 192.351562 C 162.152344 192.75 161.199219 193.171875 160.257812 193.617188 C 159.3125 194.0625 158.382812 194.53125 157.464844 195.023438 C 156.542969 195.515625 155.636719 196.027344 154.742188 196.566406 C 153.847656 197.101562 152.96875 197.660156 152.101562 198.238281 C 151.234375 198.816406 150.382812 199.417969 149.542969 200.039062 C 148.707031 200.660156 147.882812 201.300781 147.078125 201.964844 C 146.273438 202.625 145.480469 203.304688 144.710938 204.007812 C 143.9375 204.707031 143.183594 205.425781 142.445312 206.164062 C 141.707031 206.898438 140.988281 207.65625 140.289062 208.425781 C 139.585938 209.199219 138.90625 209.988281 138.246094 210.796875 C 137.582031 211.601562 136.941406 212.421875 136.320312 213.261719 C 135.699219 214.097656 135.101562 214.949219 134.519531 215.816406 C 133.941406 216.683594 133.382812 217.566406 132.847656 218.460938 C 132.3125 219.355469 131.796875 220.261719 131.304688 221.179688 C 130.8125 222.101562 130.34375 223.03125 129.898438 223.976562 C 129.453125 224.917969 129.03125 225.871094 128.632812 226.835938 C 128.234375 227.796875 127.859375 228.769531 127.507812 229.75 C 127.15625 230.734375 126.828125 231.722656 126.527344 232.722656 C 126.222656 233.71875 125.945312 234.722656 125.691406 235.734375 C 125.4375 236.746094 125.210938 237.765625 125.007812 238.785156 C 124.804688 239.808594 124.625 240.835938 124.472656 241.867188 C 124.320312 242.898438 124.191406 243.933594 124.089844 244.972656 C 123.988281 246.011719 123.910156 247.050781 123.859375 248.089844 C 123.808594 249.132812 123.78125 250.175781 123.78125 251.21875 C 123.78125 252.261719 123.808594 253.304688 123.859375 254.34375 C 123.910156 255.386719 123.988281 256.425781 124.089844 257.464844 C 124.191406 258.5 124.320312 259.535156 124.472656 260.566406 C 124.625 261.597656 124.804688 262.625 125.007812 263.648438 C 125.210938 264.671875 125.4375 265.6875 125.691406 266.699219 C 125.945312 267.710938 126.222656 268.714844 126.527344 269.714844 C 126.828125 270.710938 127.15625 271.703125 127.507812 272.683594 C 127.859375 273.664062 128.234375 274.636719 128.632812 275.601562 C 129.03125 276.566406 129.453125 277.519531 129.898438 278.460938 C 130.34375 279.402344 130.8125 280.335938 131.304688 281.253906 C 131.796875 282.175781 132.3125 283.082031 132.847656 283.976562 C 133.382812 284.871094 133.941406 285.75 134.519531 286.617188 C 135.101562 287.484375 135.699219 288.335938 136.320312 289.175781 C 136.941406 290.011719 137.582031 290.832031 138.246094 291.640625 C 138.90625 292.445312 139.585938 293.234375 140.289062 294.007812 C 140.988281 294.78125 141.707031 295.535156 142.445312 296.273438 C 143.183594 297.011719 143.9375 297.730469 144.710938 298.429688 C 145.480469 299.128906 146.273438 299.8125 147.078125 300.472656 C 147.882812 301.132812 148.707031 301.773438 149.542969 302.394531 C 150.382812 303.019531 151.234375 303.617188 152.101562 304.195312 C 152.96875 304.777344 153.847656 305.335938 154.742188 305.871094 C 155.636719 306.40625 156.542969 306.921875 157.464844 307.410156 C 158.382812 307.902344 159.3125 308.371094 160.257812 308.816406 C 161.199219 309.265625 162.152344 309.6875 163.117188 310.085938 C 164.078125 310.484375 165.050781 310.859375 166.035156 311.210938 C 167.015625 311.5625 168.003906 311.890625 169.003906 312.191406 C 170 312.496094 171.007812 312.773438 172.019531 313.027344 C 173.03125 313.28125 174.046875 313.507812 175.070312 313.710938 C 176.09375 313.914062 177.117188 314.09375 178.152344 314.246094 C 179.183594 314.398438 180.214844 314.527344 181.253906 314.628906 C 182.292969 314.730469 183.332031 314.808594 184.375 314.859375 C 185.414062 314.910156 186.457031 314.9375 187.5 314.9375 C 188.542969 314.9375 189.585938 314.910156 190.625 314.859375 C 191.667969 314.808594 192.707031 314.730469 193.746094 314.628906 C 194.78125 314.527344 195.816406 314.398438 196.847656 314.246094 C 197.878906 314.09375 198.90625 313.914062 199.929688 313.710938 C 200.953125 313.507812 201.96875 313.28125 202.980469 313.027344 C 203.992188 312.773438 205 312.496094 205.996094 312.191406 C 206.996094 311.890625 207.984375 311.5625 208.964844 311.210938 C 209.949219 310.859375 210.921875 310.484375 211.882812 310.085938 C 212.847656 309.6875 213.800781 309.265625 214.742188 308.816406 C 215.683594 308.371094 216.617188 307.902344 217.535156 307.410156 C 218.457031 306.921875 219.363281 306.40625 220.257812 305.871094 C 221.152344 305.335938 222.03125 304.777344 222.898438 304.195312 C 223.765625 303.617188 224.617188 303.019531 225.457031 302.394531 C 226.292969 301.773438 227.117188 301.132812 227.921875 300.472656 C 228.726562 299.8125 229.519531 299.128906 230.289062 298.429688 C 231.0625 297.730469 231.816406 297.011719 232.554688 296.273438 C 233.292969 295.535156 234.011719 294.78125 234.710938 294.007812 C 235.410156 293.234375 236.09375 292.445312 236.753906 291.640625 C 237.417969 290.832031 238.058594 290.011719 238.679688 289.175781 C 239.300781 288.335938 239.898438 287.484375 240.480469 286.617188 C 241.058594 285.75 241.617188 284.871094 242.152344 283.976562 C 242.6875 283.082031 243.203125 282.175781 243.695312 281.253906 C 244.1875 280.335938 244.65625 279.402344 245.101562 278.460938 C 245.546875 277.519531 245.96875 276.566406 246.367188 275.601562 C 246.765625 274.636719 247.140625 273.664062 247.492188 272.683594 C 247.84375 271.703125 248.171875 270.710938 248.472656 269.714844 C 248.777344 268.714844 249.054688 267.710938 249.308594 266.699219 C 249.5625 265.6875 249.789062 264.671875 249.992188 263.648438 C 250.195312 262.625 250.375 261.597656 250.527344 260.566406 C 250.679688 259.535156 250.808594 258.5 250.910156 257.464844 C 251.011719 256.425781 251.089844 255.386719 251.140625 254.34375 C 251.191406 253.304688 251.21875 252.261719 251.21875 251.21875 C 251.21875 250.175781 251.191406 249.132812 251.140625 248.089844 C 251.089844 247.050781 251.011719 246.011719 250.910156 244.972656 C 250.808594 243.933594 250.679688 242.898438 250.527344 241.867188 C 250.375 240.835938 250.195312 239.808594 249.992188 238.785156 C 249.789062 237.765625 249.5625 236.746094 249.308594 235.734375 C 249.054688 234.722656 248.777344 233.71875 248.472656 232.722656 C 248.171875 231.722656 247.84375 230.734375 247.492188 229.75 C 247.140625 228.769531 246.765625 227.796875 246.367188 226.835938 C 245.96875 225.871094 245.546875 224.917969 245.101562 223.976562 C 244.65625 223.03125 244.1875 222.101562 243.695312 221.179688 C 243.203125 220.261719 242.6875 219.355469 242.152344 218.460938 C 241.617188 217.566406 241.058594 216.683594 240.480469 215.816406 C 239.898438 214.949219 239.300781 214.097656 238.679688 213.261719 C 238.058594 212.421875 237.417969 211.601562 236.753906 210.796875 C 236.09375 209.988281 235.410156 209.199219 234.710938 208.425781 C 234.011719 207.65625 233.292969 206.898438 232.554688 206.164062 C 231.816406 205.425781 231.0625 204.707031 230.289062 204.007812 C 229.519531 203.304688 228.726562 202.625 227.921875 201.964844 C 227.117188 201.300781 226.292969 200.660156 225.457031 200.039062 C 224.617188 199.417969 223.765625 198.816406 222.898438 198.238281 C 222.03125 197.660156 221.152344 197.101562 220.257812 196.566406 C 219.363281 196.027344 218.457031 195.515625 217.535156 195.023438 C 216.617188 194.53125 215.683594 194.0625 214.742188 193.617188 C 213.800781 193.171875 212.847656 192.75 211.882812 192.351562 C 210.921875 191.949219 209.949219 191.574219 208.964844 191.226562 C 207.984375 190.875 206.996094 190.546875 205.996094 190.242188 C 205 189.941406 203.992188 189.664062 202.980469 189.410156 C 201.96875 189.15625 200.953125 188.929688 199.929688 188.722656 C 198.90625 188.519531 197.878906 188.34375 196.847656 188.191406 C 195.816406 188.035156 194.78125 187.910156 193.746094 187.808594 C 192.707031 187.703125 191.667969 187.628906 190.625 187.578125 C 189.585938 187.527344 188.542969 187.5 187.5 187.5 Z M 187.5 187.5 "/>
<path style=" stroke:none;fill-rule:nonzero;fill:rgb(74.119568%,16.079712%,16.079712%);fill-opacity:1;" d="M 187.453125 308.773438 C 172.074219 308.773438 157.59375 302.785156 146.726562 291.898438 C 135.839844 281.03125 129.851562 266.550781 129.851562 251.171875 C 129.851562 235.792969 135.839844 221.3125 146.726562 210.445312 C 157.59375 199.554688 172.074219 193.570312 187.453125 193.570312 C 202.832031 193.570312 217.3125 199.554688 228.179688 210.445312 C 239.070312 221.335938 245.054688 235.792969 245.054688 251.171875 C 245.054688 266.550781 239.070312 281.03125 228.179688 291.898438 C 217.3125 302.785156 202.832031 308.773438 187.453125 308.773438 Z M 187.453125 197.023438 C 172.996094 197.023438 159.390625 202.664062 149.167969 212.886719 C 138.945312 223.109375 133.304688 236.714844 133.304688 251.171875 C 133.304688 265.628906 138.945312 279.234375 149.167969 289.457031 C 159.390625 299.679688 172.996094 305.320312 187.453125 305.320312 C 201.910156 305.320312 215.519531 299.679688 225.738281 289.457031 C 235.960938 279.234375 241.601562 265.628906 241.601562 251.171875 C 241.601562 236.714844 235.960938 223.109375 225.738281 212.886719 C 215.519531 202.664062 201.910156 197.023438 187.453125 197.023438 Z M 187.453125 197.023438 "/>
</g>
</svg>
