<?xml version="1.0" encoding="UTF-8"?>
<svg xmlns="http://www.w3.org/2000/svg" xmlns:xlink="http://www.w3.org/1999/xlink" width="375pt" height="374.999991pt" viewBox="0 0 375 374.999991" version="1.2">
<defs>
<clipPath id="clip1">
  <path d="M 144.261719 142 L 230.511719 142 L 230.511719 247.148438 L 144.261719 247.148438 Z M 144.261719 142 "/>
</clipPath>
<clipPath id="clip2">
  <path d="M 144.261719 127.898438 L 230.511719 127.898438 L 230.511719 159 L 144.261719 159 Z M 144.261719 127.898438 "/>
</clipPath>
</defs>
<g id="surface1">
<path style=" stroke:none;fill-rule:nonzero;fill:rgb(74.119568%,16.079712%,16.079712%);fill-opacity:1;" d="M 229.632812 143.121094 L 229.632812 231.949219 C 229.632812 239.839844 210.71875 246.25 187.386719 246.25 C 164.054688 246.25 145.140625 239.839844 145.140625 231.925781 L 145.140625 143.121094 Z M 229.632812 143.121094 "/>
<g clip-path="url(#clip1)" clip-rule="nonzero">
<path style=" stroke:none;fill-rule:nonzero;fill:rgb(0%,0%,0%);fill-opacity:1;" d="M 187.386719 247.109375 C 163.199219 247.109375 144.261719 240.433594 144.261719 231.925781 L 144.261719 142.242188 L 230.511719 142.242188 L 230.511719 231.925781 C 230.511719 240.433594 211.574219 247.109375 187.386719 247.109375 Z M 146.019531 143.980469 L 146.019531 231.925781 C 146.019531 239.195312 164.980469 245.34375 187.410156 245.34375 C 209.839844 245.34375 228.800781 239.195312 228.800781 231.925781 L 228.800781 143.980469 Z M 146.019531 143.980469 "/>
</g>
<path style=" stroke:none;fill-rule:nonzero;fill:rgb(100%,23.919678%,0%);fill-opacity:1;" d="M 229.632812 143.121094 C 229.632812 151.011719 210.71875 157.421875 187.386719 157.421875 C 164.054688 157.421875 145.140625 151.011719 145.140625 143.121094 C 145.140625 135.234375 164.054688 128.824219 187.386719 128.824219 C 210.71875 128.824219 229.632812 135.210938 229.632812 143.121094 Z M 229.632812 143.121094 "/>
<g clip-path="url(#clip2)" clip-rule="nonzero">
<path style=" stroke:none;fill-rule:nonzero;fill:rgb(0%,0%,0%);fill-opacity:1;" d="M 187.386719 158.28125 C 163.199219 158.28125 144.261719 151.632812 144.261719 143.121094 C 144.261719 134.613281 163.199219 127.941406 187.386719 127.941406 C 211.574219 127.941406 230.511719 134.613281 230.511719 143.121094 C 230.511719 151.632812 211.574219 158.28125 187.386719 158.28125 Z M 187.386719 129.703125 C 164.957031 129.703125 146.019531 135.828125 146.019531 143.121094 C 146.019531 150.417969 164.957031 156.542969 187.386719 156.542969 C 209.816406 156.542969 228.777344 150.390625 228.777344 143.121094 C 228.777344 135.855469 209.816406 129.703125 187.386719 129.703125 Z M 187.386719 129.703125 "/>
</g>
</g>
</svg>
