<?xml version="1.0" encoding="UTF-8"?>
<svg xmlns="http://www.w3.org/2000/svg" xmlns:xlink="http://www.w3.org/1999/xlink" width="375pt" height="374.999991pt" viewBox="0 0 375 374.999991" version="1.2">
<defs>
<clipPath id="clip1">
  <path d="M 145 210 L 230 210 L 230 314.984375 L 145 314.984375 Z M 145 210 "/>
</clipPath>
<clipPath id="clip2">
  <path d="M 144.261719 210 L 230.511719 210 L 230.511719 314.984375 L 144.261719 314.984375 Z M 144.261719 210 "/>
</clipPath>
<clipPath id="clip3">
  <path d="M 144.261719 195.734375 L 230.511719 195.734375 L 230.511719 227 L 144.261719 227 Z M 144.261719 195.734375 "/>
</clipPath>
</defs>
<g id="surface1">
<g clip-path="url(#clip1)" clip-rule="nonzero">
<path style=" stroke:none;fill-rule:nonzero;fill:rgb(83.918762%,69.799805%,13.328552%);fill-opacity:1;" d="M 229.632812 210.957031 L 229.632812 299.785156 C 229.632812 307.675781 210.71875 314.085938 187.386719 314.085938 C 164.054688 314.085938 145.140625 307.675781 145.140625 299.761719 L 145.140625 210.957031 Z M 229.632812 210.957031 "/>
</g>
<g clip-path="url(#clip2)" clip-rule="nonzero">
<path style=" stroke:none;fill-rule:nonzero;fill:rgb(45.098877%,45.098877%,45.098877%);fill-opacity:1;" d="M 187.386719 314.941406 C 163.199219 314.941406 144.261719 308.269531 144.261719 299.761719 L 144.261719 210.078125 L 230.511719 210.078125 L 230.511719 299.761719 C 230.511719 308.269531 211.574219 314.941406 187.386719 314.941406 Z M 146.019531 211.816406 L 146.019531 299.761719 C 146.019531 307.03125 164.980469 313.179688 187.410156 313.179688 C 209.839844 313.179688 228.800781 307.03125 228.800781 299.761719 L 228.800781 211.816406 Z M 146.019531 211.816406 "/>
</g>
<path style=" stroke:none;fill-rule:nonzero;fill:rgb(100%,87.059021%,34.899902%);fill-opacity:1;" d="M 229.632812 210.957031 C 229.632812 218.847656 210.71875 225.257812 187.386719 225.257812 C 164.054688 225.257812 145.140625 218.847656 145.140625 210.957031 C 145.140625 203.070312 164.054688 196.65625 187.386719 196.65625 C 210.71875 196.65625 229.632812 203.046875 229.632812 210.957031 Z M 229.632812 210.957031 "/>
<g clip-path="url(#clip3)" clip-rule="nonzero">
<path style=" stroke:none;fill-rule:nonzero;fill:rgb(45.098877%,45.098877%,45.098877%);fill-opacity:1;" d="M 187.386719 226.117188 C 163.199219 226.117188 144.261719 219.464844 144.261719 210.957031 C 144.261719 202.449219 163.199219 195.777344 187.386719 195.777344 C 211.574219 195.777344 230.511719 202.449219 230.511719 210.957031 C 230.511719 219.464844 211.574219 226.117188 187.386719 226.117188 Z M 187.386719 197.539062 C 164.957031 197.539062 146.019531 203.664062 146.019531 210.957031 C 146.019531 218.25 164.957031 224.375 187.386719 224.375 C 209.816406 224.375 228.777344 218.226562 228.777344 210.957031 C 228.777344 203.6875 209.816406 197.539062 187.386719 197.539062 Z M 187.386719 197.539062 "/>
</g>
</g>
</svg>
